<svg xmlns="http://www.w3.org/2000/svg" viewBox="0 0 100 100" id="MoneyBanking" width="48" height="48">
  <defs>
    <linearGradient id="a" x1="44.64" x2="97" y1="50.3" y2="50.3" gradientUnits="userSpaceOnUse">
      <stop offset="0" stop-color="#dd87fd" class="stopColor6cc4c7 svgShape"></stop>
      <stop offset=".81" stop-color="#48358e" class="stopColor35398e svgShape"></stop>
    </linearGradient>
  </defs>
  <path fill="url(#a)" d="M95.55,17.16H46.09a1.45,1.45,0,0,0-1.45,1.45V82a1.45,1.45,0,0,0,1.45,1.46H95.55A1.45,1.45,0,0,0,97,82V18.61A1.45,1.45,0,0,0,95.55,17.16Zm-1.46,2.91V35.23H47.55V20.07ZM63.56,66.38V53.71H78.08V66.38Zm14.52,2.91V80.53H63.56V69.29Zm0-31.15V50.81H63.56V38.14ZM60.65,50.81H47.55V38.14h13.1Zm0,2.9V66.38H47.55V53.71Zm20.34,0h13.1V66.38H81Zm0-2.9V38.14h13.1V50.81ZM47.55,69.29h13.1V80.53H47.55ZM81,80.53V69.29h13.1V80.53Z"></path>
  <path fill="#a087fd" d="M22,16.56a19,19,0,1,0,19,19A19,19,0,0,0,22,16.56Zm0,35.05A16.07,16.07,0,1,1,38.05,35.54,16.09,16.09,0,0,1,22,51.61Z" class="color6cc4c7 svgShape"></path>
  <path fill="#a087fd" d="M22.49 27c2.37 0 4.29 1.62 4.29 3.61h2.91A6.73 6.73 0 0024 24.21V21.7H21.13v2.48a6.73 6.73 0 00-5.83 6.4 6.8 6.8 0 006.43 6.49v0c2.51 0 4.56 1.73 4.56 3.85s-2.05 3.86-4.56 3.86S17.18 43.09 17.18 41H14.27c0 3.55 3 6.46 6.86 6.74v1.69H24v-2A6.87 6.87 0 0029.19 41c0-3.49-2.94-6.38-6.7-6.72v0c-2.36 0-4.29-1.62-4.29-3.62S20.13 27 22.49 27zM35.62 59.25H8.33a1.46 1.46 0 000 2.91H35.62a1.46 1.46 0 100-2.91zM35.62 65.93H8.33a1.45 1.45 0 100 2.9H35.62a1.45 1.45 0 100-2.9zM35.62 72.6H8.33a1.46 1.46 0 000 2.91H35.62a1.46 1.46 0 100-2.91zM35.62 79.28H8.33a1.45 1.45 0 100 2.9H35.62a1.45 1.45 0 100-2.9z" class="color6cc4c7 svgShape"></path>
</svg>
